# xmcd
#
# Track frame offsets: 
#        150
#        7021
#        21189
#        35113
#        55373
#        66239
#        78481
#        91649
#        106078
#        123113
#        131520
#        144107
#        153956
#        168427
#        181891
#        194963
#        205857
#        216027
#        228252
#        242866
#        256348
#        268155
#        280400
#        292328
#        302982
#        308589
#        314683
#        321115
#        330403
#        334279
#        338660
#
# Disc length: 4637 seconds
#
# Revision: 0
# Processed by: cddbd v1.5.2PL0 Copyright (c) Steve Scherf et al.
# Submitted via: ExactAudioCopy v0.95b4
#
DISCID=ce121b1f
DTITLE=Various Artist - Dodac zycia do lat
DYEAR=2000
DGENRE=Instrumental
TTITLE0=Bastringlo
TTITLE1=Specknerin
TTITLE2=Biserka
TTITLE3=Sally gardens
TTITLE4=Carnevalito
TTITLE5=Swing w uliczce
TTITLE6=Amerykanska promenada
TTITLE7=Break mixer
TTITLE8=Cha-cha I
TTITLE9=Ciro - wspinaczka po górach
TTITLE10=Czardasz
TTITLE11=Kasztany
TTITLE12=Kazaczok
TTITLE13=Klaskany
TTITLE14=Piosenka Józefa
TTITLE15=Pljeskavac kolo
TTITLE16=Pogoda - deszczyk
TTITLE17=Polka lubelska
TTITLE18=Radosny krag I
TTITLE19=Radosny krag II
TTITLE20=Samba mixer
TTITLE21=Cha-cha II
TTITLE22=Pozdrowienie w takt polki
TTITLE23=unknown1
TTITLE24=unknown2
TTITLE25=unknown3
TTITLE26=unknown4
TTITLE27=unknown5
TTITLE28=unknown6
TTITLE29=unknown7
TTITLE30=unknown8
EXTD=
EXTT0=
EXTT1=
EXTT2=
EXTT3=
EXTT4=
EXTT5=
EXTT6=
EXTT7=
EXTT8=
EXTT9=
EXTT10=
EXTT11=
EXTT12=
EXTT13=
EXTT14=
EXTT15=
EXTT16=
EXTT17=
EXTT18=
EXTT19=
EXTT20=
EXTT21=
EXTT22=
EXTT23=
EXTT24=
EXTT25=
EXTT26=
EXTT27=
EXTT28=
EXTT29=
EXTT30=
PLAYORDER=
